<?xml version="1.0" encoding="UTF-8" standalone="no"?><!DOCTYPE svg PUBLIC "-//W3C//DTD SVG 1.1//EN" "http://www.w3.org/Graphics/SVG/1.1/DTD/svg11.dtd"><svg width="512px" height="512px" version="1.1" xmlns="http://www.w3.org/2000/svg" xmlns:xlink="http://www.w3.org/1999/xlink" xml:space="preserve" xmlns:serif="http://www.serif.com/" style="fill-rule:evenodd;clip-rule:evenodd;stroke-linejoin:round;stroke-miterlimit:2;"><ellipse cx="255" cy="256" rx="255" ry="256" style="fill:#04f;fill-opacity:0.61;"/><g><path d="M133.434,299.969l-50.746,-0l-7.05,23.878l-45.638,-0l54.367,-144.651l48.756,0l54.354,144.651l-46.806,-0l-7.237,-23.878Zm-9.272,-31.279l-15.966,-51.999l-15.799,51.999l31.765,0Z" style="fill:#fff;fill-rule:nonzero;stroke:#000;stroke-width:10px;"/><path d="M201.883,179.196l110.511,0l-0,31.082l-65.616,-0l0,25.259l56.045,0l-0,29.206l-56.045,0l0,59.104l-44.895,-0l0,-144.651Z" style="fill:#fff;fill-rule:nonzero;stroke:#000;stroke-width:10px;"/><path d="M336.667,179.196l44.697,0l0,54.664l46.821,-54.664l59.447,0l-52.786,54.599l55.154,90.052l-55.044,-0l-30.498,-59.487l-23.094,24.189l0,35.298l-44.697,-0l-0,-144.651Z" style="fill:#fff;fill-rule:nonzero;stroke:#000;stroke-width:10px;"/></g></svg>